<?xml version="1.0" standalone="no"?>
<!DOCTYPE svg PUBLIC "-//W3C//DTD SVG 20010904//EN"
 "http://www.w3.org/TR/2001/REC-SVG-20010904/DTD/svg10.dtd">
<svg version="1.0" xmlns="http://www.w3.org/2000/svg"
 width="202.000000pt" height="202.000000pt" viewBox="0 0 202.000000 202.000000"
 preserveAspectRatio="xMidYMid meet">
<metadata>
Created by potrace 1.14, written by Peter Selinger 2001-2017
</metadata>
<g transform="translate(0.000000,202.000000) scale(0.100000,-0.100000)"
fill="#000000" stroke="none">
<path d="M1501 2002 c-10 -20 -14 -169 -4 -185 3 -5 5 -45 4 -89 -1 -43 3 -94
9 -113 8 -24 8 -40 1 -54 -9 -17 -20 -19 -83 -16 -40 1 -82 -2 -92 -8 -11 -5
-43 -11 -70 -13 -74 -5 -137 -22 -170 -46 -19 -13 -47 -21 -82 -23 -30 -1 -59
-7 -66 -12 -7 -6 -42 -11 -78 -12 -35 -1 -69 -6 -75 -11 -11 -9 -15 -10 -41
-10 -8 0 -24 -19 -34 -44 -11 -24 -27 -49 -35 -56 -11 -9 -13 -25 -9 -64 14
-114 -44 -311 -90 -311 -25 0 -25 8 -10 145 13 119 7 160 -22 160 -10 0 -14
-5 -11 -14 4 -10 1 -13 -9 -9 -7 3 -14 11 -14 18 0 8 -20 13 -60 14 -55 1 -62
-2 -59 -25 0 -4 -4 -10 -10 -13 -15 -10 -32 -152 -20 -167 6 -8 5 -13 -5 -17
-7 -3 -25 -31 -39 -61 -14 -31 -31 -56 -37 -56 -11 0 -8 23 17 106 14 46 14
58 -2 135 -9 46 -21 90 -27 96 -6 7 -28 13 -49 13 -30 0 -39 -4 -40 -17 -7
-79 -8 -85 -18 -78 -5 3 -13 20 -16 37 -7 30 -8 31 -21 13 -8 -10 -14 -29 -14
-41 0 -13 -6 -27 -14 -31 -8 -4 -16 -17 -18 -28 -5 -31 -50 -77 -70 -72 -16 5
-18 -2 -18 -54 l0 -59 33 0 c17 0 37 -4 42 -8 6 -4 11 -36 10 -71 0 -57 3 -66
25 -82 35 -25 144 -38 206 -24 61 14 94 31 94 50 0 7 5 17 12 21 7 4 8 3 4 -4
-8 -14 -3 -14 46 -3 26 6 36 6 31 -1 -4 -7 6 -8 30 -4 20 4 38 2 41 -3 9 -13
101 15 137 41 30 22 65 100 53 119 -4 7 -3 9 3 6 11 -7 23 34 29 98 5 44 24
166 30 193 3 17 11 22 27 20 22 -3 22 -6 19 -123 -4 -132 6 -178 35 -169 15 5
15 4 4 -4 -12 -9 -13 -15 -3 -36 11 -24 16 -26 69 -25 72 2 120 30 155 91 31
53 52 139 44 179 -3 16 -2 29 2 29 7 0 15 -16 47 -92 8 -21 20 -38 25 -38 6 0
10 -6 10 -13 0 -15 33 -37 83 -55 33 -11 42 -11 61 1 35 23 75 89 84 137 10
57 7 156 -6 184 -15 30 -29 99 -24 114 2 6 16 12 32 12 28 0 40 -15 40 -51 0
-10 4 -19 8 -19 4 0 9 -10 9 -22 4 -51 61 -168 94 -194 30 -24 82 -25 157 -2
61 18 78 27 93 52 11 17 19 27 19 21 0 -5 25 16 55 47 54 55 67 78 44 78 -8 0
-10 12 -6 36 8 46 1 40 -23 -22 -14 -37 -19 -43 -19 -24 0 14 8 44 19 68 17
39 18 42 3 40 -21 -4 -53 -63 -53 -98 0 -17 -3 -21 -9 -12 -6 9 -14 3 -32 -22
-13 -20 -27 -36 -30 -36 -3 0 -27 -18 -52 -40 -25 -22 -49 -40 -55 -40 -18 0
-71 100 -78 147 -3 26 -11 54 -16 60 -16 21 1 110 33 175 14 29 11 40 -23 70
-31 27 -55 38 -43 18 3 -5 3 -27 -1 -47 -4 -21 -9 -32 -11 -25 -3 6 -8 10 -12
8 -11 -7 -15 31 -15 179 -1 77 -5 143 -9 146 -5 4 -7 15 -4 25 4 17 6 17 12
-3 4 -13 13 -23 21 -23 18 0 27 -40 22 -88 -3 -20 -1 -47 3 -60 6 -15 5 -21
-1 -17 -6 4 -10 -5 -10 -19 0 -14 6 -26 13 -26 6 0 25 -13 40 -30 16 -16 32
-30 35 -30 15 0 30 58 26 100 -10 112 -13 138 -21 180 l-8 45 -98 2 c-82 1
-99 -1 -106 -15z m40 -102 c-4 -21 -6 -20 -12 13 -3 21 -3 50 0 65 5 24 6 23
11 -13 3 -22 3 -51 1 -65z m12 -107 c3 -14 1 -34 -3 -42 -4 -9 -13 -27 -19
-41 -11 -23 -11 -23 -6 9 3 19 0 40 -6 47 -9 11 -8 14 0 14 7 0 9 5 6 10 -9
14 2 43 14 36 5 -3 11 -18 14 -33z m17 -193 c0 -5 -4 -10 -10 -10 -5 0 -10 5
-10 10 0 6 5 10 10 10 6 0 10 -4 10 -10z m-370 -187 c0 -49 -23 -182 -31 -178
-4 3 -5 14 -2 25 3 11 0 26 -6 34 -18 21 -19 125 -1 136 26 17 40 11 40 -17z
m184 -148 c21 -133 -10 -186 -46 -79 -17 50 -25 224 -11 238 14 13 44 -71 57
-159z m-313 26 c7 -34 17 -57 23 -54 6 4 7 -1 2 -12 -4 -11 -14 -42 -22 -69
-37 -120 -52 -134 -73 -68 -10 30 -10 55 -1 118 22 157 48 187 71 85z m879 40
c0 -5 -7 -11 -15 -15 -15 -5 -20 5 -8 17 9 10 23 9 23 -2z m-315 -21 c3 -5 1
-10 -4 -10 -6 0 -11 5 -11 10 0 6 2 10 4 10 3 0 8 -4 11 -10z m-815 -20 c0 -5
-5 -10 -11 -10 -5 0 -7 5 -4 10 3 6 8 10 11 10 2 0 4 -4 4 -10z m130 -50 c0
-5 -2 -10 -4 -10 -3 0 -8 5 -11 10 -3 6 -1 10 4 10 6 0 11 -4 11 -10z m-726
-26 c3 -8 2 -12 -4 -9 -6 3 -10 10 -10 16 0 14 7 11 14 -7z m20 -40 c10 -25
-1 -29 -14 -5 -6 12 -7 21 -1 21 5 0 12 -7 15 -16z m466 -14 c0 -5 -5 -10 -11
-10 -5 0 -7 5 -4 10 3 6 8 10 11 10 2 0 4 -4 4 -10z m-20 -100 c0 -5 -2 -10
-4 -10 -3 0 -8 5 -11 10 -3 6 -1 10 4 10 6 0 11 -4 11 -10z m-40 -100 c0 -5
-7 -10 -16 -10 -8 0 -12 5 -9 10 3 6 10 10 16 10 5 0 9 -4 9 -10z"/>
<path d="M1568 1093 c-10 -3 -19 -10 -19 -16 -1 -7 -3 -25 -5 -42 -2 -16 -5
-50 -7 -75 -3 -40 -6 -45 -33 -51 -17 -3 -67 -5 -111 -4 -83 3 -111 -4 -99
-24 20 -31 107 -56 189 -55 43 1 47 -1 41 -19 -3 -11 -8 -34 -10 -51 -12 -100
-72 -255 -128 -331 -14 -20 -15 -19 -21 7 -4 15 -8 58 -9 95 -7 189 -41 250
-144 258 -26 2 -47 4 -47 5 0 7 -36 6 -40 -1 -6 -9 -11 -86 -17 -249 -3 -77
-8 -105 -28 -144 -26 -52 -42 -57 -46 -16 -1 14 -7 67 -12 119 -7 61 -7 112
-1 144 10 58 7 64 -37 83 -37 16 -140 19 -149 5 -3 -5 -6 -78 -6 -163 -1 -84
-4 -157 -6 -162 -11 -17 -23 21 -23 72 0 88 -52 169 -132 205 -47 22 -86 21
-169 -3 -68 -21 -129 -64 -142 -103 -9 -25 -37 -21 -37 6 0 17 -2 19 -9 7 -6
-8 -7 -19 -3 -25 3 -5 -2 -4 -11 4 -14 11 -17 11 -21 0 -14 -39 -25 -147 -27
-254 -3 -108 -14 -191 -33 -236 -6 -13 1 -18 31 -24 21 -5 40 -8 43 -7 4 0 30
3 59 7 78 9 91 18 91 66 0 22 4 48 9 58 6 9 11 42 12 72 2 57 23 139 57 225
12 29 20 53 18 55 -1 2 5 11 14 20 21 20 40 11 44 -22 4 -35 16 -108 23 -149
3 -19 7 -80 8 -135 2 -55 3 -105 4 -111 2 -17 61 -31 144 -33 93 -2 118 11
149 80 13 27 28 49 35 49 7 0 36 -6 66 -14 29 -8 65 -12 79 -9 29 6 70 46 113
111 30 46 37 49 55 27 7 -8 21 -15 31 -15 11 0 19 -4 19 -9 0 -5 33 -17 73
-27 l74 -17 26 23 c15 13 27 28 27 34 0 5 12 22 26 37 19 20 31 25 43 19 45
-23 141 -60 156 -60 58 0 152 93 126 124 -7 8 -21 13 -32 11 -10 -2 -19 1 -19
6 0 6 -5 7 -11 3 -6 -3 -15 -1 -19 7 -11 17 -38 20 -47 6 -3 -7 -3 -9 2 -5 4
4 14 0 22 -8 9 -8 14 -16 12 -17 -2 -1 -14 -8 -26 -14 -28 -16 -33 -16 -33 -2
0 5 5 7 10 4 18 -11 11 21 -10 48 -16 21 -21 45 -25 124 -2 54 -1 124 2 156 5
48 9 58 27 62 48 10 247 14 270 5 26 -9 26 -9 26 37 l0 46 -45 -5 c-24 -3 -46
-1 -47 4 -2 5 -23 5 -53 -2 -27 -6 -73 -10 -103 -8 l-54 3 5 57 c4 47 1 60
-14 74 -25 22 -24 32 4 36 20 3 20 4 -5 9 -17 4 -25 2 -21 -4 4 -6 -5 -7 -23
-3 -47 10 -78 13 -96 9z m-83 -583 c3 -5 1 -10 -4 -10 -6 0 -11 5 -11 10 0 6
2 10 4 10 3 0 8 -4 11 -10z"/>
</g>
</svg>
